<svg xmlns="http://www.w3.org/2000/svg" viewBox="0 0 575.86 143.53">

<rect fill="#ffc40f" x="48.6" y="2.62" width="46.09" height="46.09"/>
<polygon fill="#fe7315" points="140.78 48.71 94.69 48.71 94.69 2.62 140.78 48.71"/>
<rect fill="red" x="94.69" y="48.71" width="46.09" height="46.09"/>
<rect fill="#f4136b" x="94.69" y="94.8" width="46.09" height="46.09"/>
<rect fill="#63c0ad" x="2.5" y="48.71" width="46.09" height="46.09"/>
<polygon fill="#45b1c9" points="48.59 140.92 2.5 94.8 48.59 94.8 48.59 140.92"/>
<rect fill="#82027e" x="48.6" y="94.8" width="46.09" height="46.09"/>
<path fill="#ffffff" d="M197.26,118.41a1.38,1.38,0,0,1-1.37-1.37v-3.35a1.38,1.38,0,0,1,1.37-1.37h28.82L213.26,77.14a1.37,1.37,0,0,1,.61-1.66l6.24-3.58c4.72-2.59,7-6.63,7-12.3,0-10.71-8.16-15.93-24.95-15.93H193.3V117a1.37,1.37,0,0,1-1.37,1.36h-3.35a1.37,1.37,0,0,1-1.37-1.36V39a1.38,1.38,0,0,1,1.37-1.37h13.6c10.07,0,17.8,1.92,23,5.67s8,9.37,8,16.34c0,7.93-3.39,13.85-10.07,17.59l-2.78,1.55,13.77,37.82a1.36,1.36,0,0,1-.16,1.25,1.39,1.39,0,0,1-1.12.6H197.26Z"/>
<path fill="#ffffff" d="M272.65,119.52c-9.7,0-16.79-2.85-21-8.45s-6.31-14.35-6.31-26.36,2.12-20.87,6.31-26.36,11.35-8.46,21-8.46c11.26,0,19.07,3.81,23.17,11.31a1.35,1.35,0,0,1-.31,1.7L268.19,85.76a1.39,1.39,0,0,1-.87.32h-5.24a1.34,1.34,0,0,1-1.27-.92,1.4,1.4,0,0,1,.41-1.52L288.37,61c-3.14-3.35-8.4-5-15.69-5a30.34,30.34,0,0,0-9,1.11,15.42,15.42,0,0,0-6.4,4A18.26,18.26,0,0,0,253,69.72a61.65,61.65,0,0,0-1.53,15,60.66,60.66,0,0,0,1.53,15,18.81,18.81,0,0,0,4.37,8.64,15.55,15.55,0,0,0,6.4,4,31.57,31.57,0,0,0,9,1.11c8,0,13.53-2,16.51-6a1.35,1.35,0,0,1,1-.54h.14a1.25,1.25,0,0,1,.91.36l2.46,2.24a1.4,1.4,0,0,1,.16,1.86c-4.35,5.45-11.46,8.21-21.14,8.21Z"/>
<path fill="#ffffff" d="M322.05,140.71a1.37,1.37,0,0,1-1.37-1.37V136a1.37,1.37,0,0,1,1.37-1.37H335.1c5.15,0,8.94-1.32,11.24-3.94s3.46-7.57,3.55-14.9c-4.08,2.48-9.5,3.73-16.13,3.73-9.71,0-16.79-2.85-21.05-8.45s-6.31-14.35-6.31-26.36,2.12-20.87,6.31-26.36,11.34-8.46,21.05-8.46c11.26,0,19.07,3.81,23.17,11.31a1.36,1.36,0,0,1-.32,1.7L342.67,74.62a1.4,1.4,0,0,1-.89.31h-5.24a1.36,1.36,0,0,1-1.28-.91,1.39,1.39,0,0,1,.41-1.52L349.46,61c-3.15-3.35-8.41-5-15.7-5a30.26,30.26,0,0,0-8.95,1.11,15.39,15.39,0,0,0-6.41,4A18.44,18.44,0,0,0,314,69.72a62.15,62.15,0,0,0-1.53,15,60.66,60.66,0,0,0,1.53,15,18.81,18.81,0,0,0,4.37,8.64,15.52,15.52,0,0,0,6.41,4,31.54,31.54,0,0,0,8.95,1.11c7.68,0,13.1-1.87,16.13-5.58V88.6a1.37,1.37,0,0,1,1.37-1.36h3.35A1.36,1.36,0,0,1,356,88.6V118c0,15-7,22.67-20.89,22.67h-13Z"/>
<path fill="#ffffff" d="M380,118.41a1.37,1.37,0,0,1-1.36-1.37v-3.35a1.37,1.37,0,0,1,1.36-1.37h34.29l-20.8-49-23,54.25a1.38,1.38,0,0,1-1.26.84h-3.57a1.35,1.35,0,0,1-1.14-.62,1.37,1.37,0,0,1-.12-1.29l27.89-65.81a1.36,1.36,0,0,1,1.25-.84,1.35,1.35,0,0,1,1.26.84l27.88,65.81a1.37,1.37,0,0,1-1.25,1.91H380Z"/>
<path fill="#ffffff" d="M434.12,118.41a1.37,1.37,0,0,1-1.36-1.37V52.36A1.36,1.36,0,0,1,434.12,51h3.35a1.37,1.37,0,0,1,1.37,1.37v60h32.54a1.37,1.37,0,0,1,1.36,1.37V117a1.37,1.37,0,0,1-1.36,1.37Z"/>
<rect fill="#ffffff" x="482.81" y="51.01" width="6.08" height="67.42" rx="1.37" ry="1.37"/>
<path fill="#ffffff" d="M514.62,118.41a1.38,1.38,0,0,1-1.37-1.37v-3.35a1.38,1.38,0,0,1,1.37-1.37h34.29l-20.8-49-23.06,54.25a1.36,1.36,0,0,1-1.25.84h-3.58a1.35,1.35,0,0,1-1.14-.62,1.37,1.37,0,0,1-.11-1.29l27.89-65.81a1.35,1.35,0,0,1,1.25-.84,1.33,1.33,0,0,1,1.25.84l27.89,65.81a1.37,1.37,0,0,1-1.25,1.91H514.62Z"/></svg>