<svg xmlns="http://www.w3.org/2000/svg" viewBox="0 0 575.89 143.53">

<rect fill="#ffc40f" x="48.93" y="2.12" width="46.42" height="46.42"/>
<polygon fill="#fe7315" points="141.8 48.54 95.35 48.54 95.35 2.12 141.8 48.54"/>
<rect fill="red" x="95.35" y="48.54" width="46.42" height="46.42"/>
<rect fill="#f4136b" x="95.35" y="94.97" width="46.42" height="46.42"/>
<rect fill="#63c0ad" x="2.51" y="48.54" width="46.42" height="46.42"/>
<polygon fill="#45b1c9" points="48.93 141.41 2.51 94.97 48.93 94.97 48.93 141.41"/>
<rect fill="#82027e" x="48.93" y="94.97" width="46.42" height="46.42"/>
<path fill="#e14749" d="M198.69,118.74a1.38,1.38,0,0,1-1.38-1.37V114a1.37,1.37,0,0,1,1.38-1.37h29L214.8,77.18a1.37,1.37,0,0,1,.62-1.67l6.29-3.6c4.75-2.62,7.06-6.68,7.06-12.4,0-10.78-8.21-16-25.12-16h-9v73.87a1.38,1.38,0,0,1-1.38,1.38H190a1.38,1.38,0,0,1-1.38-1.38V38.75A1.38,1.38,0,0,1,190,37.37h13.7c10.14,0,17.92,1.93,23.15,5.71s8.1,9.43,8.1,16.46c0,8-3.42,13.95-10.14,17.71L222,78.81l13.86,38.1a1.39,1.39,0,0,1-1.29,1.86H198.71Z"/>
<path fill="#e14749" d="M274.6,119.87c-9.77,0-16.91-2.87-21.2-8.52S247,96.9,247,84.8s2.13-21,6.36-26.55,11.43-8.51,21.2-8.51c11.34,0,19.21,3.83,23.34,11.38a1.38,1.38,0,0,1-.32,1.72l-27.52,23a1.39,1.39,0,0,1-.87.32H264a1.35,1.35,0,0,1-1.28-.92,1.44,1.44,0,0,1,.41-1.54l27.36-22.81c-3.17-3.37-8.47-5.07-15.82-5.07a30.26,30.26,0,0,0-9,1.13,15.47,15.47,0,0,0-6.45,4,18.61,18.61,0,0,0-4.41,8.7,62.51,62.51,0,0,0-1.54,15.1,61.51,61.51,0,0,0,1.54,15.1,18.93,18.93,0,0,0,4.41,8.7,15.62,15.62,0,0,0,6.45,4,31.55,31.55,0,0,0,9,1.12c8,0,13.64-2,16.64-6.08a1.38,1.38,0,0,1,1-.55h.13a1.27,1.27,0,0,1,.92.37l2.48,2.25a1.4,1.4,0,0,1,.16,1.88c-4.38,5.48-11.54,8.26-21.3,8.26Z"/>
<path fill="#e14749" d="M324.35,141.21a1.38,1.38,0,0,1-1.37-1.38v-3.37a1.38,1.38,0,0,1,1.37-1.38H337.5c5.19,0,9-1.33,11.32-4s3.48-7.62,3.58-15c-4.11,2.5-9.57,3.77-16.25,3.77-9.78,0-16.91-2.87-21.21-8.52s-6.35-14.45-6.35-26.55,2.13-21,6.35-26.55,11.43-8.51,21.21-8.51c11.33,0,19.21,3.83,23.34,11.38a1.38,1.38,0,0,1-.32,1.72l-14.05,11.8a1.4,1.4,0,0,1-.89.32H339a1.37,1.37,0,0,1-1.29-.92,1.41,1.41,0,0,1,.42-1.54L352,60.91c-3.17-3.37-8.47-5.07-15.81-5.07a30.37,30.37,0,0,0-9,1.13,15.47,15.47,0,0,0-6.45,4,18.51,18.51,0,0,0-4.4,8.7,62.51,62.51,0,0,0-1.54,15.1,61,61,0,0,0,1.54,15.1,18.83,18.83,0,0,0,4.4,8.7,15.62,15.62,0,0,0,6.45,4,31.62,31.62,0,0,0,9,1.12c7.73,0,13.19-1.88,16.25-5.62V88.73a1.38,1.38,0,0,1,1.37-1.38h3.38a1.38,1.38,0,0,1,1.37,1.38v29.65c0,15.14-7.07,22.83-21,22.83H324.35Z"/>
<path fill="#e14749" d="M382.76,118.74a1.38,1.38,0,0,1-1.38-1.37V114a1.37,1.37,0,0,1,1.38-1.37h34.53l-21-49.34-23.22,54.64a1.39,1.39,0,0,1-1.26.85h-3.61a1.35,1.35,0,0,1-1.14-.62,1.39,1.39,0,0,1-.12-1.31l28.09-66.28a1.39,1.39,0,0,1,1.26-.85,1.35,1.35,0,0,1,1.26.85l28.09,66.28a1.38,1.38,0,0,1-1.26,1.93H382.76Z"/>
<path fill="#e14749" d="M437.23,118.74a1.38,1.38,0,0,1-1.37-1.37V52.22a1.38,1.38,0,0,1,1.37-1.38h3.38A1.37,1.37,0,0,1,442,52.22v60.4h32.77a1.37,1.37,0,0,1,1.38,1.37v3.38a1.38,1.38,0,0,1-1.38,1.37Z"/>
<rect fill="#e14749" x="486.3" y="50.86" width="6.13" height="67.9" rx="1.38" ry="1.38"/>
<path fill="#e14749" d="M518.33,118.74a1.38,1.38,0,0,1-1.37-1.37V114a1.37,1.37,0,0,1,1.37-1.37h34.54l-21-49.34L508.7,117.92a1.4,1.4,0,0,1-1.27.85h-3.6a1.38,1.38,0,0,1-1.26-1.93l28.09-66.28a1.38,1.38,0,0,1,1.26-.85,1.36,1.36,0,0,1,1.26.85l28.09,66.28a1.39,1.39,0,0,1-.12,1.31,1.35,1.35,0,0,1-1.14.62H518.33Z"/>

</svg>